<svg width="419" height="81" viewBox="0 0 419 81" fill="none" xmlns="http://www.w3.org/2000/svg">
<path d="M0.533203 6C0.533203 2.68629 3.21949 0 6.5332 0H412.872C416.768 0 419.631 3.65566 418.697 7.43829L401.66 76.4383C400.998 79.1175 398.594 81 395.835 81H6.5332C3.21949 81 0.533203 78.3137 0.533203 75V6Z" fill="#175730"/>
<path d="M356.976 7.04238C357.417 5.25562 359.02 4 360.86 4H410.62C413.217 4 415.126 6.43618 414.504 8.95762L398.477 73.9576C398.036 75.7444 396.433 77 394.593 77H344.833C342.236 77 340.327 74.5638 340.949 72.0424L356.976 7.04238Z" fill="white"/>
<path d="M378.958 27.5466C379.424 27.5739 379.865 27.7581 380.21 28.0662L380.353 28.2048L380.358 28.2117L380.364 28.2195L389.733 39.1501C390.054 39.5232 390.229 39.9984 390.229 40.49C390.229 40.9203 390.095 41.3385 389.847 41.6863L389.733 41.8308L380.353 52.7751C379.991 53.1669 379.49 53.4032 378.958 53.4343C378.426 53.4654 377.902 53.289 377.497 52.9421C377.092 52.5952 376.837 52.1048 376.786 51.574C376.735 51.0432 376.891 50.5133 377.223 50.0955L377.229 50.0876L377.234 50.0808L385.453 40.49L377.234 30.9001L377.229 30.8923L377.223 30.8855C376.891 30.4678 376.735 29.9377 376.786 29.407C376.837 28.8762 377.092 28.3857 377.497 28.0388C377.902 27.692 378.426 27.5156 378.958 27.5466Z" fill="#175730" stroke="#175730"/>
<path d="M366.448 27.5059C366.993 27.5484 367.499 27.8063 367.854 28.2217L377.224 39.1523H377.225C377.544 39.5257 377.719 40.001 377.719 40.4922C377.719 40.9834 377.544 41.4587 377.225 41.832L377.224 41.833L367.849 52.7705L367.842 52.7773C367.48 53.169 366.981 53.4054 366.448 53.4365C365.916 53.4676 365.392 53.2911 364.987 52.9443C364.582 52.5975 364.328 52.107 364.276 51.5762C364.225 51.0454 364.382 50.5155 364.713 50.0977L364.719 50.0898L364.725 50.083L372.943 40.4922L364.722 30.9023V30.9014C364.366 30.4859 364.19 29.9464 364.232 29.4014C364.275 28.8563 364.533 28.3505 364.948 27.9951C365.364 27.6398 365.903 27.4634 366.448 27.5059Z" fill="#175730" stroke="#175730"/>
</svg>
